<svg xmlns="http://www.w3.org/2000/svg" xmlns:xlink="http://www.w3.org/1999/xlink" width="100" zoomAndPan="magnify" viewBox="0 0 75 30.000001" height="40" preserveAspectRatio="xMidYMid meet" version="1.0"><defs><g/><clipPath id="9f4ec6d980"><path d="M 4.113281 8.46875 L 11 8.46875 L 11 20.808594 L 4.113281 20.808594 Z M 4.113281 8.46875 " clip-rule="nonzero"/></clipPath><clipPath id="8a439e5b03"><path d="M 13 13 L 16.453125 13 L 16.453125 16 L 13 16 Z M 13 13 " clip-rule="nonzero"/></clipPath></defs><g clip-path="url(#9f4ec6d980)"><path fill="#6395c7" d="M 10.15625 17.941406 C 8.269531 17.941406 6.730469 16.402344 6.730469 14.515625 C 6.730469 12.628906 8.269531 11.089844 10.15625 11.089844 C 10.269531 11.089844 10.359375 11 10.359375 10.886719 L 10.359375 8.671875 C 10.359375 8.5625 10.269531 8.46875 10.15625 8.46875 L 9.09375 8.46875 C 9.003906 8.46875 8.921875 8.53125 8.898438 8.625 L 8.613281 9.78125 C 8.363281 9.859375 8.125 9.957031 7.902344 10.074219 L 6.878906 9.460938 C 6.800781 9.414062 6.699219 9.425781 6.632812 9.488281 L 5.132812 10.992188 C 5.066406 11.058594 5.054688 11.160156 5.101562 11.238281 L 5.714844 12.257812 C 5.601562 12.484375 5.503906 12.722656 5.421875 12.96875 L 4.265625 13.257812 C 4.175781 13.28125 4.113281 13.359375 4.113281 13.453125 L 4.113281 15.578125 C 4.113281 15.667969 4.175781 15.75 4.265625 15.773438 L 5.421875 16.0625 C 5.503906 16.308594 5.601562 16.546875 5.714844 16.773438 L 5.101562 17.792969 C 5.054688 17.871094 5.066406 17.972656 5.132812 18.039062 L 6.632812 19.539062 C 6.699219 19.605469 6.800781 19.617188 6.878906 19.570312 L 7.902344 18.957031 C 8.125 19.074219 8.363281 19.167969 8.613281 19.25 L 8.898438 20.40625 C 8.921875 20.496094 9.003906 20.558594 9.09375 20.558594 L 10.15625 20.558594 C 10.269531 20.558594 10.359375 20.46875 10.359375 20.359375 L 10.359375 18.140625 C 10.359375 18.03125 10.269531 17.941406 10.15625 17.941406 Z M 10.15625 17.941406 " fill-opacity="1" fill-rule="nonzero"/></g><path fill="#6395c7" d="M 10.15625 11.695312 C 8.601562 11.695312 7.335938 12.960938 7.335938 14.515625 C 7.335938 16.070312 8.601562 17.335938 10.15625 17.335938 C 11.714844 17.335938 12.976562 16.070312 12.976562 14.515625 C 12.976562 12.960938 11.714844 11.695312 10.15625 11.695312 Z M 10.15625 12.097656 C 10.320312 12.097656 10.582031 12.621094 10.699219 13.527344 C 10.519531 13.515625 10.339844 13.507812 10.15625 13.507812 C 9.976562 13.507812 9.792969 13.515625 9.617188 13.527344 C 9.734375 12.625 9.996094 12.097656 10.15625 12.097656 Z M 9.574219 12.171875 C 9.394531 12.515625 9.269531 13.011719 9.207031 13.5625 C 8.65625 13.628906 8.160156 13.75 7.8125 13.929688 C 8.03125 13.066406 8.707031 12.386719 9.574219 12.171875 Z M 7.738281 14.515625 C 7.738281 14.355469 8.261719 14.09375 9.167969 13.972656 C 9.15625 14.152344 9.148438 14.332031 9.148438 14.515625 C 9.148438 14.695312 9.15625 14.878906 9.167969 15.058594 C 8.265625 14.9375 7.738281 14.675781 7.738281 14.515625 Z M 7.8125 15.097656 C 8.15625 15.277344 8.65625 15.402344 9.207031 15.464844 C 9.269531 16.019531 9.394531 16.515625 9.574219 16.859375 C 8.707031 16.644531 8.03125 15.964844 7.8125 15.097656 Z M 10.15625 16.933594 C 9.996094 16.933594 9.734375 16.410156 9.617188 15.503906 C 9.792969 15.515625 9.976562 15.523438 10.15625 15.523438 C 10.339844 15.523438 10.519531 15.515625 10.699219 15.503906 C 10.582031 16.40625 10.320312 16.933594 10.15625 16.933594 Z M 10.15625 15.121094 C 9.953125 15.121094 9.757812 15.113281 9.574219 15.097656 C 9.5625 14.914062 9.554688 14.71875 9.554688 14.515625 C 9.554688 14.308594 9.5625 14.113281 9.574219 13.933594 C 9.757812 13.917969 9.953125 13.910156 10.15625 13.910156 C 10.363281 13.910156 10.558594 13.917969 10.738281 13.933594 C 10.753906 14.117188 10.761719 14.308594 10.761719 14.515625 C 10.761719 14.71875 10.753906 14.917969 10.738281 15.097656 C 10.554688 15.113281 10.363281 15.121094 10.15625 15.121094 Z M 10.742188 16.859375 C 10.921875 16.515625 11.042969 16.019531 11.109375 15.464844 C 11.660156 15.402344 12.15625 15.277344 12.5 15.097656 C 12.285156 15.964844 11.605469 16.644531 10.742188 16.859375 Z M 12.574219 14.515625 C 12.574219 14.675781 12.050781 14.9375 11.148438 15.058594 C 11.160156 14.878906 11.164062 14.695312 11.164062 14.515625 C 11.164062 14.332031 11.160156 14.152344 11.148438 13.972656 C 12.050781 14.09375 12.574219 14.355469 12.574219 14.515625 Z M 11.109375 13.5625 C 11.042969 13.011719 10.921875 12.515625 10.742188 12.171875 C 11.605469 12.386719 12.285156 13.066406 12.5 13.929688 C 12.160156 13.75 11.660156 13.628906 11.109375 13.5625 Z M 11.109375 13.5625 " fill-opacity="1" fill-rule="nonzero"/><g clip-path="url(#8a439e5b03)"><path fill="#6395c7" d="M 15.597656 13.910156 C 15.335938 13.910156 15.113281 14.078125 15.03125 14.3125 L 13.582031 14.3125 C 13.472656 14.3125 13.382812 14.40625 13.382812 14.515625 C 13.382812 14.625 13.472656 14.714844 13.582031 14.714844 L 15.03125 14.714844 C 15.113281 14.949219 15.335938 15.121094 15.597656 15.121094 C 15.929688 15.121094 16.203125 14.847656 16.203125 14.515625 C 16.203125 14.183594 15.929688 13.910156 15.597656 13.910156 Z M 15.597656 13.910156 " fill-opacity="1" fill-rule="nonzero"/></g><path fill="#6395c7" d="M 10.964844 10.6875 L 12.171875 10.6875 C 12.25 10.6875 12.320312 10.644531 12.351562 10.574219 L 12.699219 9.882812 L 13.617188 9.882812 C 13.703125 10.113281 13.925781 10.285156 14.1875 10.285156 C 14.519531 10.285156 14.792969 10.011719 14.792969 9.679688 C 14.792969 9.347656 14.519531 9.074219 14.1875 9.074219 C 13.925781 9.074219 13.703125 9.246094 13.617188 9.476562 L 12.574219 9.476562 C 12.5 9.476562 12.429688 9.519531 12.394531 9.589844 L 12.046875 10.285156 L 10.964844 10.285156 C 10.851562 10.285156 10.761719 10.375 10.761719 10.484375 C 10.761719 10.597656 10.851562 10.6875 10.964844 10.6875 Z M 10.964844 10.6875 " fill-opacity="1" fill-rule="nonzero"/><path fill="#6395c7" d="M 14.1875 18.746094 C 13.925781 18.746094 13.703125 18.914062 13.617188 19.148438 L 12.699219 19.148438 L 12.351562 18.453125 C 12.320312 18.386719 12.25 18.34375 12.171875 18.34375 L 10.964844 18.34375 C 10.851562 18.34375 10.761719 18.433594 10.761719 18.542969 C 10.761719 18.65625 10.851562 18.746094 10.964844 18.746094 L 12.046875 18.746094 L 12.394531 19.441406 C 12.429688 19.511719 12.5 19.550781 12.574219 19.550781 L 13.617188 19.550781 C 13.703125 19.785156 13.925781 19.957031 14.1875 19.957031 C 14.519531 19.957031 14.792969 19.683594 14.792969 19.351562 C 14.792969 19.019531 14.519531 18.746094 14.1875 18.746094 Z M 14.1875 18.746094 " fill-opacity="1" fill-rule="nonzero"/><path fill="#6395c7" d="M 15.195312 16.53125 C 14.933594 16.53125 14.710938 16.699219 14.625 16.933594 L 14.128906 16.933594 L 13.976562 16.464844 C 13.949219 16.386719 13.871094 16.328125 13.785156 16.328125 L 12.976562 16.328125 C 12.867188 16.328125 12.777344 16.417969 12.777344 16.53125 C 12.777344 16.640625 12.867188 16.730469 12.976562 16.730469 L 13.640625 16.730469 L 13.792969 17.199219 C 13.824219 17.28125 13.898438 17.335938 13.984375 17.335938 L 14.625 17.335938 C 14.710938 17.570312 14.933594 17.738281 15.195312 17.738281 C 15.527344 17.738281 15.800781 17.46875 15.800781 17.132812 C 15.800781 16.800781 15.527344 16.53125 15.195312 16.53125 Z M 15.195312 16.53125 " fill-opacity="1" fill-rule="nonzero"/><path fill="#6395c7" d="M 14.625 11.695312 L 13.984375 11.695312 C 13.898438 11.695312 13.824219 11.75 13.792969 11.832031 L 13.640625 12.296875 L 12.976562 12.296875 C 12.867188 12.296875 12.777344 12.390625 12.777344 12.5 C 12.777344 12.609375 12.867188 12.703125 12.976562 12.703125 L 13.785156 12.703125 C 13.871094 12.703125 13.949219 12.644531 13.976562 12.566406 L 14.128906 12.097656 L 14.625 12.097656 C 14.710938 12.332031 14.933594 12.5 15.195312 12.5 C 15.527344 12.5 15.800781 12.226562 15.800781 11.894531 C 15.800781 11.5625 15.527344 11.292969 15.195312 11.292969 C 14.933594 11.292969 14.710938 11.460938 14.625 11.695312 Z M 14.625 11.695312 " fill-opacity="1" fill-rule="nonzero"/><g fill="#6395c7" fill-opacity="1"><g transform="translate(19.036766, 16.11471)"><g><path d="M 2.265625 -0.046875 C 2.398438 0.179688 2.59375 0.40625 2.84375 0.625 L 2.59375 0.859375 C 2.46875 0.765625 2.34375 0.640625 2.21875 0.484375 C 2.09375 0.335938 1.984375 0.1875 1.890625 0.03125 C 1.828125 0.03125 1.773438 0.03125 1.734375 0.03125 C 1.429688 0.03125 1.171875 -0.03125 0.953125 -0.15625 C 0.734375 -0.289062 0.566406 -0.476562 0.453125 -0.71875 C 0.335938 -0.96875 0.28125 -1.257812 0.28125 -1.59375 C 0.28125 -1.925781 0.335938 -2.210938 0.453125 -2.453125 C 0.566406 -2.703125 0.734375 -2.894531 0.953125 -3.03125 C 1.171875 -3.164062 1.429688 -3.234375 1.734375 -3.234375 C 2.023438 -3.234375 2.28125 -3.164062 2.5 -3.03125 C 2.71875 -2.894531 2.882812 -2.703125 3 -2.453125 C 3.125 -2.210938 3.1875 -1.925781 3.1875 -1.59375 C 3.1875 -1.207031 3.101562 -0.878906 2.9375 -0.609375 C 2.78125 -0.335938 2.554688 -0.148438 2.265625 -0.046875 Z M 0.65625 -1.59375 C 0.65625 -1.175781 0.75 -0.851562 0.9375 -0.625 C 1.125 -0.394531 1.390625 -0.28125 1.734375 -0.28125 C 2.066406 -0.28125 2.328125 -0.394531 2.515625 -0.625 C 2.703125 -0.851562 2.796875 -1.175781 2.796875 -1.59375 C 2.796875 -2.019531 2.703125 -2.347656 2.515625 -2.578125 C 2.335938 -2.804688 2.078125 -2.921875 1.734375 -2.921875 C 1.390625 -2.921875 1.125 -2.804688 0.9375 -2.578125 C 0.75 -2.347656 0.65625 -2.019531 0.65625 -1.59375 Z M 0.65625 -1.59375 "/></g></g></g><g fill="#6395c7" fill-opacity="1"><g transform="translate(22.501262, 16.11471)"><g><path d="M 2.234375 -2.25 L 2.234375 0 L 1.890625 0 L 1.890625 -0.390625 C 1.816406 -0.253906 1.710938 -0.148438 1.578125 -0.078125 C 1.453125 -0.00390625 1.304688 0.03125 1.140625 0.03125 C 0.878906 0.03125 0.679688 -0.0390625 0.546875 -0.1875 C 0.410156 -0.34375 0.34375 -0.566406 0.34375 -0.859375 L 0.34375 -2.25 L 0.703125 -2.25 L 0.703125 -0.859375 C 0.703125 -0.660156 0.742188 -0.515625 0.828125 -0.421875 C 0.910156 -0.328125 1.035156 -0.28125 1.203125 -0.28125 C 1.398438 -0.28125 1.5625 -0.34375 1.6875 -0.46875 C 1.8125 -0.59375 1.875 -0.765625 1.875 -0.984375 L 1.875 -2.25 Z M 2.234375 -2.25 "/></g></g></g><g fill="#6395c7" fill-opacity="1"><g transform="translate(25.090658, 16.11471)"><g><path d="M 2.34375 -2.25 L 2.34375 0 L 1.984375 0 L 1.984375 -0.40625 C 1.910156 -0.269531 1.804688 -0.160156 1.671875 -0.078125 C 1.546875 -0.00390625 1.394531 0.03125 1.21875 0.03125 C 1.019531 0.03125 0.84375 -0.015625 0.6875 -0.109375 C 0.539062 -0.203125 0.425781 -0.335938 0.34375 -0.515625 C 0.257812 -0.691406 0.21875 -0.894531 0.21875 -1.125 C 0.21875 -1.363281 0.257812 -1.570312 0.34375 -1.75 C 0.425781 -1.925781 0.539062 -2.0625 0.6875 -2.15625 C 0.84375 -2.257812 1.019531 -2.3125 1.21875 -2.3125 C 1.394531 -2.3125 1.546875 -2.269531 1.671875 -2.1875 C 1.804688 -2.113281 1.910156 -2.003906 1.984375 -1.859375 L 1.984375 -2.25 Z M 1.28125 -0.265625 C 1.507812 -0.265625 1.679688 -0.335938 1.796875 -0.484375 C 1.921875 -0.640625 1.984375 -0.859375 1.984375 -1.140625 C 1.984375 -1.421875 1.921875 -1.632812 1.796875 -1.78125 C 1.679688 -1.925781 1.507812 -2 1.28125 -2 C 1.0625 -2 0.890625 -1.921875 0.765625 -1.765625 C 0.640625 -1.617188 0.578125 -1.40625 0.578125 -1.125 C 0.578125 -0.851562 0.640625 -0.640625 0.765625 -0.484375 C 0.890625 -0.335938 1.0625 -0.265625 1.28125 -0.265625 Z M 1.28125 -0.265625 "/></g></g></g><g fill="#6395c7" fill-opacity="1"><g transform="translate(27.783271, 16.11471)"><g><path d="M 0.34375 0 L 0.34375 -3.296875 L 0.71875 -3.296875 L 0.71875 0 Z M 0.34375 0 "/></g></g></g><g fill="#6395c7" fill-opacity="1"><g transform="translate(28.851342, 16.11471)"><g><path d="M 0.34375 0 L 0.34375 -2.25 L 0.71875 -2.25 L 0.71875 0 Z M 0.3125 -3.203125 L 0.765625 -3.203125 L 0.765625 -2.796875 L 0.3125 -2.796875 Z M 0.3125 -3.203125 "/></g></g></g><g fill="#6395c7" fill-opacity="1"><g transform="translate(29.919412, 16.11471)"><g><path d="M 0.828125 -1.96875 L 0.828125 -0.734375 C 0.828125 -0.566406 0.863281 -0.445312 0.9375 -0.375 C 1.007812 -0.3125 1.109375 -0.28125 1.234375 -0.28125 C 1.316406 -0.28125 1.394531 -0.296875 1.46875 -0.328125 L 1.46875 -0.015625 C 1.375 0.015625 1.269531 0.03125 1.15625 0.03125 C 0.9375 0.03125 0.765625 -0.0234375 0.640625 -0.140625 C 0.523438 -0.265625 0.46875 -0.445312 0.46875 -0.6875 L 0.46875 -1.96875 L 0.03125 -1.96875 L 0.03125 -2.25 L 0.46875 -2.25 L 0.46875 -2.828125 L 0.828125 -2.96875 L 0.828125 -2.25 L 1.484375 -2.25 L 1.484375 -1.96875 Z M 0.828125 -1.96875 "/></g></g></g><g fill="#6395c7" fill-opacity="1"><g transform="translate(31.490103, 16.11471)"><g><path d="M 2.328125 -2.25 L 1.28125 0.203125 C 1.164062 0.460938 1.023438 0.648438 0.859375 0.765625 C 0.691406 0.890625 0.484375 0.972656 0.234375 1.015625 L 0.171875 0.734375 C 0.378906 0.679688 0.535156 0.613281 0.640625 0.53125 C 0.753906 0.457031 0.847656 0.335938 0.921875 0.171875 L 1.015625 -0.015625 L 0.046875 -2.25 L 0.4375 -2.25 L 1.203125 -0.390625 L 1.96875 -2.25 Z M 2.328125 -2.25 "/></g></g></g><g fill="#6395c7" fill-opacity="1"><g transform="translate(33.873066, 16.11471)"><g/></g></g><g fill="#6395c7" fill-opacity="1"><g transform="translate(35.044351, 16.11471)"><g><path d="M 1.40625 0.03125 C 0.90625 0.03125 0.507812 -0.101562 0.21875 -0.375 L 0.359375 -0.65625 C 0.515625 -0.519531 0.671875 -0.421875 0.828125 -0.359375 C 0.992188 -0.304688 1.1875 -0.28125 1.40625 -0.28125 C 1.664062 -0.28125 1.863281 -0.328125 2 -0.421875 C 2.144531 -0.523438 2.21875 -0.671875 2.21875 -0.859375 C 2.21875 -0.960938 2.179688 -1.046875 2.109375 -1.109375 C 2.046875 -1.179688 1.957031 -1.234375 1.84375 -1.265625 C 1.738281 -1.304688 1.59375 -1.347656 1.40625 -1.390625 C 1.164062 -1.441406 0.960938 -1.5 0.796875 -1.5625 C 0.640625 -1.625 0.515625 -1.710938 0.421875 -1.828125 C 0.328125 -1.953125 0.28125 -2.113281 0.28125 -2.3125 C 0.28125 -2.488281 0.328125 -2.644531 0.421875 -2.78125 C 0.515625 -2.925781 0.644531 -3.035156 0.8125 -3.109375 C 0.988281 -3.191406 1.195312 -3.234375 1.4375 -3.234375 C 1.65625 -3.234375 1.859375 -3.195312 2.046875 -3.125 C 2.242188 -3.050781 2.40625 -2.953125 2.53125 -2.828125 L 2.390625 -2.546875 C 2.242188 -2.671875 2.09375 -2.765625 1.9375 -2.828125 C 1.78125 -2.890625 1.613281 -2.921875 1.4375 -2.921875 C 1.1875 -2.921875 0.988281 -2.863281 0.84375 -2.75 C 0.707031 -2.644531 0.640625 -2.5 0.640625 -2.3125 C 0.640625 -2.15625 0.703125 -2.035156 0.828125 -1.953125 C 0.953125 -1.867188 1.140625 -1.800781 1.390625 -1.75 C 1.660156 -1.675781 1.875 -1.613281 2.03125 -1.5625 C 2.195312 -1.507812 2.332031 -1.425781 2.4375 -1.3125 C 2.539062 -1.195312 2.59375 -1.046875 2.59375 -0.859375 C 2.59375 -0.679688 2.539062 -0.523438 2.4375 -0.390625 C 2.34375 -0.253906 2.207031 -0.148438 2.03125 -0.078125 C 1.851562 -0.00390625 1.644531 0.03125 1.40625 0.03125 Z M 1.40625 0.03125 "/></g></g></g><g fill="#6395c7" fill-opacity="1"><g transform="translate(37.84018, 16.11471)"><g><path d="M 2.328125 -2.25 L 1.28125 0.203125 C 1.164062 0.460938 1.023438 0.648438 0.859375 0.765625 C 0.691406 0.890625 0.484375 0.972656 0.234375 1.015625 L 0.171875 0.734375 C 0.378906 0.679688 0.535156 0.613281 0.640625 0.53125 C 0.753906 0.457031 0.847656 0.335938 0.921875 0.171875 L 1.015625 -0.015625 L 0.046875 -2.25 L 0.4375 -2.25 L 1.203125 -0.390625 L 1.96875 -2.25 Z M 2.328125 -2.25 "/></g></g></g><g fill="#6395c7" fill-opacity="1"><g transform="translate(40.223142, 16.11471)"><g><path d="M 1.109375 0.03125 C 0.734375 0.03125 0.429688 -0.0664062 0.203125 -0.265625 L 0.328125 -0.53125 C 0.453125 -0.4375 0.578125 -0.367188 0.703125 -0.328125 C 0.828125 -0.285156 0.96875 -0.265625 1.125 -0.265625 C 1.289062 -0.265625 1.414062 -0.289062 1.5 -0.34375 C 1.59375 -0.40625 1.640625 -0.488281 1.640625 -0.59375 C 1.640625 -0.6875 1.609375 -0.757812 1.546875 -0.8125 C 1.492188 -0.863281 1.398438 -0.90625 1.265625 -0.9375 L 0.875 -1.03125 C 0.6875 -1.070312 0.539062 -1.144531 0.4375 -1.25 C 0.332031 -1.363281 0.28125 -1.492188 0.28125 -1.640625 C 0.28125 -1.835938 0.359375 -2 0.515625 -2.125 C 0.679688 -2.25 0.894531 -2.3125 1.15625 -2.3125 C 1.3125 -2.3125 1.457031 -2.285156 1.59375 -2.234375 C 1.738281 -2.179688 1.859375 -2.109375 1.953125 -2.015625 L 1.828125 -1.75 C 1.617188 -1.925781 1.394531 -2.015625 1.15625 -2.015625 C 0.988281 -2.015625 0.859375 -1.984375 0.765625 -1.921875 C 0.679688 -1.859375 0.640625 -1.769531 0.640625 -1.65625 C 0.640625 -1.570312 0.664062 -1.5 0.71875 -1.4375 C 0.78125 -1.382812 0.875 -1.34375 1 -1.3125 L 1.375 -1.21875 C 1.582031 -1.175781 1.738281 -1.101562 1.84375 -1 C 1.945312 -0.90625 2 -0.773438 2 -0.609375 C 2 -0.410156 1.914062 -0.253906 1.75 -0.140625 C 1.59375 -0.0234375 1.378906 0.03125 1.109375 0.03125 Z M 1.109375 0.03125 "/></g></g></g><g fill="#6395c7" fill-opacity="1"><g transform="translate(42.449036, 16.11471)"><g><path d="M 0.828125 -1.96875 L 0.828125 -0.734375 C 0.828125 -0.566406 0.863281 -0.445312 0.9375 -0.375 C 1.007812 -0.3125 1.109375 -0.28125 1.234375 -0.28125 C 1.316406 -0.28125 1.394531 -0.296875 1.46875 -0.328125 L 1.46875 -0.015625 C 1.375 0.015625 1.269531 0.03125 1.15625 0.03125 C 0.9375 0.03125 0.765625 -0.0234375 0.640625 -0.140625 C 0.523438 -0.265625 0.46875 -0.445312 0.46875 -0.6875 L 0.46875 -1.96875 L 0.03125 -1.96875 L 0.03125 -2.25 L 0.46875 -2.25 L 0.46875 -2.828125 L 0.828125 -2.96875 L 0.828125 -2.25 L 1.484375 -2.25 L 1.484375 -1.96875 Z M 0.828125 -1.96875 "/></g></g></g><g fill="#6395c7" fill-opacity="1"><g transform="translate(44.019727, 16.11471)"><g><path d="M 2.234375 -1.140625 L 0.578125 -1.140625 C 0.585938 -0.847656 0.65625 -0.628906 0.78125 -0.484375 C 0.914062 -0.335938 1.101562 -0.265625 1.34375 -0.265625 C 1.613281 -0.265625 1.859375 -0.351562 2.078125 -0.53125 L 2.203125 -0.265625 C 2.097656 -0.171875 1.96875 -0.0976562 1.8125 -0.046875 C 1.664062 0.00390625 1.507812 0.03125 1.34375 0.03125 C 0.988281 0.03125 0.710938 -0.0703125 0.515625 -0.28125 C 0.316406 -0.488281 0.21875 -0.773438 0.21875 -1.140625 C 0.21875 -1.367188 0.257812 -1.570312 0.34375 -1.75 C 0.4375 -1.925781 0.5625 -2.0625 0.71875 -2.15625 C 0.882812 -2.257812 1.070312 -2.3125 1.28125 -2.3125 C 1.570312 -2.3125 1.800781 -2.210938 1.96875 -2.015625 C 2.144531 -1.816406 2.234375 -1.546875 2.234375 -1.203125 Z M 1.28125 -2.03125 C 1.09375 -2.03125 0.9375 -1.972656 0.8125 -1.859375 C 0.695312 -1.742188 0.625 -1.582031 0.59375 -1.375 L 1.90625 -1.375 C 1.894531 -1.582031 1.832031 -1.742188 1.71875 -1.859375 C 1.613281 -1.972656 1.46875 -2.03125 1.28125 -2.03125 Z M 1.28125 -2.03125 "/></g></g></g><g fill="#6395c7" fill-opacity="1"><g transform="translate(46.461029, 16.11471)"><g><path d="M 2.859375 -2.3125 C 3.347656 -2.3125 3.59375 -2.015625 3.59375 -1.421875 L 3.59375 0 L 3.234375 0 L 3.234375 -1.40625 C 3.234375 -1.613281 3.195312 -1.765625 3.125 -1.859375 C 3.050781 -1.953125 2.929688 -2 2.765625 -2 C 2.578125 -2 2.425781 -1.9375 2.3125 -1.8125 C 2.207031 -1.6875 2.15625 -1.507812 2.15625 -1.28125 L 2.15625 0 L 1.796875 0 L 1.796875 -1.40625 C 1.796875 -1.613281 1.757812 -1.765625 1.6875 -1.859375 C 1.613281 -1.953125 1.492188 -2 1.328125 -2 C 1.140625 -2 0.988281 -1.9375 0.875 -1.8125 C 0.769531 -1.6875 0.71875 -1.507812 0.71875 -1.28125 L 0.71875 0 L 0.34375 0 L 0.34375 -1.625 C 0.34375 -1.851562 0.332031 -2.0625 0.3125 -2.25 L 0.65625 -2.25 L 0.6875 -1.859375 C 0.757812 -2.003906 0.851562 -2.113281 0.96875 -2.1875 C 1.09375 -2.269531 1.238281 -2.3125 1.40625 -2.3125 C 1.582031 -2.3125 1.726562 -2.273438 1.84375 -2.203125 C 1.957031 -2.128906 2.039062 -2.019531 2.09375 -1.875 C 2.164062 -2.007812 2.265625 -2.113281 2.390625 -2.1875 C 2.523438 -2.269531 2.679688 -2.3125 2.859375 -2.3125 Z M 2.859375 -2.3125 "/></g></g></g><g fill="#6395c7" fill-opacity="1"><g transform="translate(50.405705, 16.11471)"><g/></g></g><g fill="#6395c7" fill-opacity="1"><g transform="translate(51.57699, 16.11471)"><g><path d="M 3.109375 -3.1875 L 3.40625 -3.1875 L 3.40625 0 L 3.078125 0 L 3.078125 -2.375 L 2.03125 0 L 1.78125 0 L 0.734375 -2.359375 L 0.734375 0 L 0.390625 0 L 0.390625 -3.1875 L 0.703125 -3.1875 L 1.90625 -0.4375 Z M 3.109375 -3.1875 "/></g></g></g><g fill="#6395c7" fill-opacity="1"><g transform="translate(55.387036, 16.11471)"><g><path d="M 2.34375 -2.25 L 2.34375 0 L 1.984375 0 L 1.984375 -0.40625 C 1.910156 -0.269531 1.804688 -0.160156 1.671875 -0.078125 C 1.546875 -0.00390625 1.394531 0.03125 1.21875 0.03125 C 1.019531 0.03125 0.84375 -0.015625 0.6875 -0.109375 C 0.539062 -0.203125 0.425781 -0.335938 0.34375 -0.515625 C 0.257812 -0.691406 0.21875 -0.894531 0.21875 -1.125 C 0.21875 -1.363281 0.257812 -1.570312 0.34375 -1.75 C 0.425781 -1.925781 0.539062 -2.0625 0.6875 -2.15625 C 0.84375 -2.257812 1.019531 -2.3125 1.21875 -2.3125 C 1.394531 -2.3125 1.546875 -2.269531 1.671875 -2.1875 C 1.804688 -2.113281 1.910156 -2.003906 1.984375 -1.859375 L 1.984375 -2.25 Z M 1.28125 -0.265625 C 1.507812 -0.265625 1.679688 -0.335938 1.796875 -0.484375 C 1.921875 -0.640625 1.984375 -0.859375 1.984375 -1.140625 C 1.984375 -1.421875 1.921875 -1.632812 1.796875 -1.78125 C 1.679688 -1.925781 1.507812 -2 1.28125 -2 C 1.0625 -2 0.890625 -1.921875 0.765625 -1.765625 C 0.640625 -1.617188 0.578125 -1.40625 0.578125 -1.125 C 0.578125 -0.851562 0.640625 -0.640625 0.765625 -0.484375 C 0.890625 -0.335938 1.0625 -0.265625 1.28125 -0.265625 Z M 1.28125 -0.265625 "/></g></g></g><g fill="#6395c7" fill-opacity="1"><g transform="translate(58.079648, 16.11471)"><g><path d="M 1.46875 -2.3125 C 2.007812 -2.3125 2.28125 -2.015625 2.28125 -1.421875 L 2.28125 0 L 1.921875 0 L 1.921875 -1.40625 C 1.921875 -1.613281 1.878906 -1.765625 1.796875 -1.859375 C 1.710938 -1.953125 1.582031 -2 1.40625 -2 C 1.195312 -2 1.03125 -1.9375 0.90625 -1.8125 C 0.78125 -1.6875 0.71875 -1.515625 0.71875 -1.296875 L 0.71875 0 L 0.34375 0 L 0.34375 -1.625 C 0.34375 -1.851562 0.332031 -2.0625 0.3125 -2.25 L 0.65625 -2.25 L 0.6875 -1.859375 C 0.757812 -2.003906 0.863281 -2.113281 1 -2.1875 C 1.132812 -2.269531 1.289062 -2.3125 1.46875 -2.3125 Z M 1.46875 -2.3125 "/></g></g></g><g fill="#6395c7" fill-opacity="1"><g transform="translate(60.704943, 16.11471)"><g><path d="M 2.34375 -2.25 L 2.34375 0 L 1.984375 0 L 1.984375 -0.40625 C 1.910156 -0.269531 1.804688 -0.160156 1.671875 -0.078125 C 1.546875 -0.00390625 1.394531 0.03125 1.21875 0.03125 C 1.019531 0.03125 0.84375 -0.015625 0.6875 -0.109375 C 0.539062 -0.203125 0.425781 -0.335938 0.34375 -0.515625 C 0.257812 -0.691406 0.21875 -0.894531 0.21875 -1.125 C 0.21875 -1.363281 0.257812 -1.570312 0.34375 -1.75 C 0.425781 -1.925781 0.539062 -2.0625 0.6875 -2.15625 C 0.84375 -2.257812 1.019531 -2.3125 1.21875 -2.3125 C 1.394531 -2.3125 1.546875 -2.269531 1.671875 -2.1875 C 1.804688 -2.113281 1.910156 -2.003906 1.984375 -1.859375 L 1.984375 -2.25 Z M 1.28125 -0.265625 C 1.507812 -0.265625 1.679688 -0.335938 1.796875 -0.484375 C 1.921875 -0.640625 1.984375 -0.859375 1.984375 -1.140625 C 1.984375 -1.421875 1.921875 -1.632812 1.796875 -1.78125 C 1.679688 -1.925781 1.507812 -2 1.28125 -2 C 1.0625 -2 0.890625 -1.921875 0.765625 -1.765625 C 0.640625 -1.617188 0.578125 -1.40625 0.578125 -1.125 C 0.578125 -0.851562 0.640625 -0.640625 0.765625 -0.484375 C 0.890625 -0.335938 1.0625 -0.265625 1.28125 -0.265625 Z M 1.28125 -0.265625 "/></g></g></g><g fill="#6395c7" fill-opacity="1"><g transform="translate(63.397555, 16.11471)"><g><path d="M 2.359375 -2.25 L 2.359375 -0.015625 C 2.359375 0.316406 2.269531 0.566406 2.09375 0.734375 C 1.925781 0.910156 1.675781 1 1.34375 1 C 1 1 0.703125 0.921875 0.453125 0.765625 L 0.515625 0.46875 C 0.660156 0.550781 0.796875 0.609375 0.921875 0.640625 C 1.046875 0.679688 1.1875 0.703125 1.34375 0.703125 C 1.5625 0.703125 1.722656 0.644531 1.828125 0.53125 C 1.941406 0.414062 2 0.242188 2 0.015625 L 2 -0.515625 C 1.925781 -0.378906 1.820312 -0.269531 1.6875 -0.1875 C 1.5625 -0.101562 1.40625 -0.0625 1.21875 -0.0625 C 1.019531 -0.0625 0.84375 -0.109375 0.6875 -0.203125 C 0.539062 -0.296875 0.425781 -0.425781 0.34375 -0.59375 C 0.257812 -0.769531 0.21875 -0.96875 0.21875 -1.1875 C 0.21875 -1.40625 0.257812 -1.597656 0.34375 -1.765625 C 0.425781 -1.941406 0.539062 -2.078125 0.6875 -2.171875 C 0.84375 -2.265625 1.019531 -2.3125 1.21875 -2.3125 C 1.40625 -2.3125 1.5625 -2.269531 1.6875 -2.1875 C 1.820312 -2.113281 1.925781 -2.003906 2 -1.859375 L 2 -2.25 Z M 1.296875 -0.375 C 1.515625 -0.375 1.6875 -0.445312 1.8125 -0.59375 C 1.9375 -0.738281 2 -0.9375 2 -1.1875 C 2 -1.4375 1.9375 -1.632812 1.8125 -1.78125 C 1.6875 -1.925781 1.515625 -2 1.296875 -2 C 1.078125 -2 0.898438 -1.925781 0.765625 -1.78125 C 0.640625 -1.632812 0.578125 -1.4375 0.578125 -1.1875 C 0.578125 -0.9375 0.640625 -0.738281 0.765625 -0.59375 C 0.898438 -0.445312 1.078125 -0.375 1.296875 -0.375 Z M 1.296875 -0.375 "/></g></g></g><g fill="#6395c7" fill-opacity="1"><g transform="translate(66.10812, 16.11471)"><g><path d="M 2.234375 -1.140625 L 0.578125 -1.140625 C 0.585938 -0.847656 0.65625 -0.628906 0.78125 -0.484375 C 0.914062 -0.335938 1.101562 -0.265625 1.34375 -0.265625 C 1.613281 -0.265625 1.859375 -0.351562 2.078125 -0.53125 L 2.203125 -0.265625 C 2.097656 -0.171875 1.96875 -0.0976562 1.8125 -0.046875 C 1.664062 0.00390625 1.507812 0.03125 1.34375 0.03125 C 0.988281 0.03125 0.710938 -0.0703125 0.515625 -0.28125 C 0.316406 -0.488281 0.21875 -0.773438 0.21875 -1.140625 C 0.21875 -1.367188 0.257812 -1.570312 0.34375 -1.75 C 0.4375 -1.925781 0.5625 -2.0625 0.71875 -2.15625 C 0.882812 -2.257812 1.070312 -2.3125 1.28125 -2.3125 C 1.570312 -2.3125 1.800781 -2.210938 1.96875 -2.015625 C 2.144531 -1.816406 2.234375 -1.546875 2.234375 -1.203125 Z M 1.28125 -2.03125 C 1.09375 -2.03125 0.9375 -1.972656 0.8125 -1.859375 C 0.695312 -1.742188 0.625 -1.582031 0.59375 -1.375 L 1.90625 -1.375 C 1.894531 -1.582031 1.832031 -1.742188 1.71875 -1.859375 C 1.613281 -1.972656 1.46875 -2.03125 1.28125 -2.03125 Z M 1.28125 -2.03125 "/></g></g></g><g fill="#6395c7" fill-opacity="1"><g transform="translate(68.549422, 16.11471)"><g><path d="M 1.40625 -2.3125 C 1.476562 -2.3125 1.546875 -2.300781 1.609375 -2.28125 L 1.59375 -1.953125 C 1.53125 -1.972656 1.453125 -1.984375 1.359375 -1.984375 C 1.140625 -1.984375 0.976562 -1.914062 0.875 -1.78125 C 0.769531 -1.644531 0.71875 -1.476562 0.71875 -1.28125 L 0.71875 0 L 0.34375 0 L 0.34375 -1.625 C 0.34375 -1.851562 0.332031 -2.0625 0.3125 -2.25 L 0.65625 -2.25 L 0.6875 -1.84375 C 0.75 -1.988281 0.84375 -2.101562 0.96875 -2.1875 C 1.09375 -2.269531 1.238281 -2.3125 1.40625 -2.3125 Z M 1.40625 -2.3125 "/></g></g></g></svg>